<svg version="1.1" xmlns="http://www.w3.org/2000/svg" xmlns:xlink="http://www.w3.org/1999/xlink" width="394.16915" height="283.07406" viewBox="0,0,394.16915,283.07406"><g transform="translate(-8.33085,-10.5)"><g data-paper-data="{&quot;isPaintingLayer&quot;:true}" fill-rule="nonzero" stroke="none" stroke-width="0.5" stroke-linecap="butt" stroke-linejoin="miter" stroke-miterlimit="10" stroke-dasharray="" stroke-dashoffset="0" style="mix-blend-mode: normal"><path d="M50.5,87.5c0,-2.76143 2.23857,-5 5,-5c2.76143,0 5,2.23857 5,5c0,2.76143 -2.23857,5 -5,5c-2.76143,0 -5,-2.23857 -5,-5z" fill="#000000"/><path d="M9.5,239.5c0,-0.0922 0.0017,-0.1827 0.00504,-0.27154c-1.57919,-5.73827 -1.00504,-11.77518 -1.00504,-17.72846c0,-3.78389 -0.42055,-8.10208 0.06456,-11.80091c0.27415,-2.09028 1.71346,-3.91138 2,-6c0.36244,-2.64192 -0.37703,-5.36012 0,-8c0.33414,-2.3396 1.65696,-4.46788 1.97289,-6.81001c0.37991,-2.81646 0.32767,-5.77589 1.38997,-8.41186c0.44923,-1.11473 1.52565,-1.89572 2,-3c0.50198,-1.16861 0.4375,-2.52074 0.88315,-3.71196c0.50855,-1.35934 1.50003,-2.51143 1.96006,-3.88795c1.78929,-5.35401 2.15447,-10.49968 5.04299,-15.11798c-2.05696,-2.32978 -3.90991,-4.79942 -5.60109,-7.68686c-1.20754,-2.0617 -2.76469,-3.97477 -3.53111,-6.23781c-0.48493,-1.43187 0.07023,-3.03363 -0.11686,-4.53376c-0.29987,-2.40443 -2.27268,-4.32018 -2.93081,-6.65214c-0.32043,-1.13537 -0.0642,-2.35856 -0.0963,-3.53785c-2.66007,-10.64028 -2.03746,-21.64949 -2.03746,-32.61092c0,-6.43981 -0.72338,-13.29691 2.50843,-19.19675c9.47138,-17.29049 23.15747,-31.54021 36.95604,-45.33878c6.81664,-6.77943 14.87527,-9.81094 23.33878,-13.95604c1.31542,-0.64424 2.3598,-1.82622 3.74783,-2.29389c1.04278,-0.35135 2.24192,0.22085 3.30016,-0.08078c1.43362,-0.40863 2.55791,-1.62239 4,-2c0.67434,-0.17657 7.62319,-0.1801 8.29753,0c1.69648,0.4531 3.14579,1.56665 4.76465,2.24684c1.96001,0.82353 4.39887,1.18344 6.28334,2.12783c1.73123,0.8676 7.45292,5.08791 8.43552,6.0555c0.82397,0.81139 1.10987,2.05923 1.90326,2.90054c1.5511,1.64476 4.01268,2.08673 5.9741,3.21099c1.97999,1.1349 3.97231,2.2967 6.11902,3.07129c2.73158,2.56525 5.67551,4.98832 8.54129,7.38655c2.35927,1.97435 5.29233,3.24995 7.46232,5.43063c5.02319,5.04792 8.20671,12.79503 9.30317,19.63517c0.70006,4.36727 0.06456,9.38475 0.06456,13.80091v3c0,0 0,3.1601 -2.51227,4.45576c-0.53132,5.11455 -0.48773,10.30287 -0.48773,15.54424c0,2.9035 -0.44495,6.7718 1.25325,9.37135c0.8279,1.26732 3.40613,2.7173 4.52025,3.4684c1.75733,1.18474 3.36174,2.6238 5.24927,3.58768c0.97092,0.49581 2.1297,0.46796 3.18991,0.72186c3.83351,0.91806 7.62784,1.86499 11.36846,3.1073c3.28025,1.09341 6.4468,2.33831 9.91155,2.76775c7.58679,0.94034 15.84126,-0.02433 23.50731,-0.02433c17.33334,0 34.66666,0 52,0c4.66174,0 8.50617,0.11252 13.20526,1.14744c4.55793,1.00383 8.98593,3.15774 13.59565,3.91712c1.10134,0.18143 2.27346,-0.23337 3.34786,0.06919c1.4349,0.40407 2.56838,1.58447 4,2c0.8493,0.24651 1.77955,-0.21289 2.65214,-0.06919c5.0709,0.83508 10.3133,1.91178 15.40435,3.08288c8.68343,1.99744 15.57201,7.50329 21.66145,13.68261c1.34519,1.99205 2.5025,4.11977 4,6c1.65864,2.08257 3.49197,2.38845 4.75269,5.25653c0.55326,1.25865 0.07574,2.75879 0.31603,4.1125c0.36845,2.07574 1.67799,3.91655 2,6c0.09744,0.63044 -0.47938,1.27084 -0.31603,1.8875c0.08459,0.31932 0.66012,0.16912 0.91613,0.37788c1.46136,1.19163 2.69625,2.63772 4,4c3.58749,3.74854 9.52265,3.76629 14.26538,4.6001c2.07634,0.36504 3.92103,1.65024 6,2c3.09204,0.5202 6.84944,-0.05352 10,0c4.55924,1.51975 9.40364,0.93544 14.19909,0.93544h3c0,0 3.31156,0 4.54461,2.69503c1.46987,0.87069 2.45539,2.47274 2.45539,4.30497c0,2.03487 -1.21557,3.78583 -2.96018,4.56635c0.21565,3.94431 -0.53263,12.52429 -8.18859,10.2999c-1.41312,-0.41057 -2.57695,-0.8372 -3.52614,-1.27495c-3.8462,2.18446 -8.57581,3.68969 -12.52418,4.34414c-3.70353,0.61386 -8.05199,0.06456 -11.80091,0.06456c-1.8188,0 -6.64186,0.07723 -7.91342,-0.3806c-1.12953,-0.40669 -1.68081,-1.75689 -2.71524,-2.36614c-0.90826,-0.53495 -2.10058,-0.45032 -3,-1c-0.99156,-0.60599 -1.63189,-1.66307 -2.54129,-2.38654c-2.81023,-2.23569 -5.77212,-3.77544 -8.36559,-6.33118c-0.50103,-0.53591 -0.94251,-1.05814 -1.33678,-1.57556c-0.07869,0.27668 -0.14441,0.55658 -0.19225,0.84094c-0.59951,3.56345 0.93734,7.58114 -0.31603,11.1125c-0.60172,1.69531 -2.51808,2.90393 -2.65686,4.6975c-0.51781,6.69237 0.03746,13.67056 0.03746,20.38908c0,8.0433 0.80263,16.62751 -0.03746,24.61092c-0.38184,3.62871 -2.48737,6.70317 -3.02711,10.18999c-0.31016,2.00372 -0.64096,4.00446 -1,6c-0.35416,1.96839 0.32704,4.02692 0,6c-0.50591,3.05223 -2.02499,6.88643 -3.19202,9.78023c-0.67623,1.67681 -0.88123,3.72599 -2.20788,4.95439c-3.46177,3.2054 -8.35951,2.46447 -12.53553,2.46447c-1.40023,0 -6.58066,0.04816 -7.44892,-0.21454c-1.34112,-0.40578 -2.28429,-1.66491 -3.57385,-2.21289c-1.17055,-0.49741 -2.52206,-0.43397 -3.71196,-0.88314c-3.82105,-1.44241 -7.51005,-3.29177 -10.96004,-5.47775c-1.80293,-1.14237 -3.24151,-2.79035 -5,-4c-1.61192,-1.10883 -3.80605,-1.45295 -5.0825,-2.93567c-3.13175,-3.63784 -2.22273,-8.96571 -2.22273,-13.27601c0,-10.05757 -0.23057,-20.14633 0.06457,-30.19909c-0.10307,-0.38018 0.37473,-1.3569 0.02202,-1.18151c-3.46948,1.72531 -8.71281,-0.19462 -12.47567,0.34314c-4.7473,0.67845 -9.21353,2.42332 -14,3c-3.37829,0.40703 -7.18673,0.03746 -10.61092,0.03746c-7.06217,0 -14.14001,0.14268 -21.19909,-0.06456c-2.6091,0.93938 -4.15788,1.59405 -7.18999,2.0271c-2.99016,0.42705 -6.13479,-0.37461 -9.11822,0.01313c-1.6855,0.21905 -3.31256,0.79647 -5,1c-6.14388,0.74104 -12.56297,-0.75463 -18.69178,-0.04023c-2.191,0.25539 -3.85355,2.63294 -5.48037,3.49346c-1.40374,0.74253 -2.95832,1.21643 -4.51963,1.50654c-0.62719,0.11653 -1.2995,-0.56342 -1.8875,-0.31603c-2.61811,1.10152 -1.66764,5.21844 -2.12795,6.82952c-0.44769,1.56689 -2.00874,2.93686 -1.78546,4.55108c0,7.30603 1.06494,15.58511 -0.06456,22.80091c-0.16302,1.04141 -0.82671,1.96025 -1,3c-0.59946,3.59673 1.82109,6.07363 -3.01189,9.2553c-1.67317,1.10149 -9.06057,0.94379 -11.92355,0.94379c-6.66666,0 -13.33334,0 -20,0c-4.31413,0 -9.76171,0.70875 -13.94554,-0.09022c-1.76319,-0.33671 -3.33334,-1.33333 -5,-2c-1.16779,-0.04144 -2.39487,0.24535 -3.50338,-0.12432c-1.38948,-0.46337 -2.45128,-1.61248 -3.74783,-2.29388c-1.40431,-0.73804 -3.29328,-0.76284 -4.33878,-1.95604c-1.36562,-1.55854 -1.92792,-3.71691 -2.3999,-5.73462c-0.36454,-1.55838 -0.05132,-3.20051 -0.06457,-4.80091c-0.02568,-3.10284 -0.41345,-6.7471 0.06457,-9.80091c0.16302,-1.04141 0.81334,-1.96256 1,-3c0.34295,-1.90609 -0.30093,-3.89277 -0.02711,-5.81001c0.35206,-2.46508 1.67482,-4.72494 2.02711,-7.18999c0.43125,-3.01756 -0.54612,-6.15052 0.02566,-9.14463c0.33671,-1.76319 1.60938,-3.24796 2,-5c0.27966,-1.25436 -0.2065,-2.583 -0.02566,-3.85537c0.14832,-1.04361 0.85093,-1.9565 1,-3c0.55058,-3.85392 0.63343,-7.20436 2,-11c-0.16817,-5.72796 -0.06457,-11.46841 -0.06457,-17.19909c0,-4.68975 -0.22446,-8.88483 1.1994,-13.39794l0.66593,-2.67436c-0.86533,-1.37491 -0.86533,-2.92769 -0.86533,-2.92769c0,-8.66666 0,-17.33334 0,-26c0,-0.80699 -0.03019,-1.61539 -0.05403,-2.42348c-0.97303,0.32375 -1.98883,0.60072 -3.03255,1.04288c-5.05746,2.14257 -9.21917,5.40164 -14.51547,7.1812c-5.84302,1.46076 -11.76767,4.52852 -17.78702,5.16194c-5.04581,0.53097 -10.44761,0.15149 -15.61094,0.05716c-0.00344,2.52329 -0.02032,5.57061 -0.09019,5.92583c-0.70046,3.56138 -3.46992,7.17856 -3.97434,10.85537c-0.31714,2.31168 0.36085,4.69474 0,7c-0.16301,1.04141 -0.81334,1.96257 -1,3c-0.44717,2.48535 0.06456,5.66826 0.06456,8.19909c0,8 0,16 0,24c0,3.96326 0.27971,8.04795 0,12c-0.12688,1.7928 0.47457,3.91241 -0.59163,5.35929c-1.61397,2.19024 -4.12634,3.85742 -6.74471,4.59647c-3.02809,0.8547 -4.86808,-1.58349 -7.46458,-2.02032c-3.67681,-0.61858 -8.25565,0.04189 -12.00965,0.064c-0.72962,0.58805 -1.75327,1.00056 -3.18944,1.00056c-5,0 -5,-5 -5,-5l0.05928,-0.09677c-0.03864,-0.28132 -0.05928,-0.58195 -0.05928,-0.90323zM31.30091,234.56456c0.85864,0.14232 2.07036,0.22638 3.02535,0.51633c-0.29579,-3.42268 0.17374,-7.23578 0.17374,-10.58089c0,-8 0,-16 0,-24c0,-3.11923 -0.41628,-6.72905 0.06456,-9.80091c0.16301,-1.04141 0.81334,-1.96257 1,-3c0.41319,-2.29646 -0.33808,-4.69129 0,-7c0.5746,-3.92391 3.25057,-7.3581 4.02566,-11.14463c0.27361,-1.33666 0.19937,-2.70529 0.08881,-4.07812c-2.2817,-0.1579 -4.51658,-0.57198 -6.53832,-1.56797c-0.8656,-0.42642 -1.57471,-1.08188 -2.24345,-1.79515c-1.45175,3.38898 -1.64219,7.92511 -2.66789,11.00946c-1.32568,3.9864 -3.4141,7.66893 -5.1568,11.40009c-1.20792,2.58619 -0.19431,2.80212 -0.61003,5.58814c-0.36749,2.46283 -1.67482,4.72494 -2.02711,7.18999c-0.37727,2.63985 0.38638,5.36148 0,8c-0.30545,2.08594 -1.75746,3.90581 -2,6c-0.37219,3.21353 0.06457,6.93607 0.06457,10.19909c0,4.0593 -0.64277,8.84656 0.1015,12.98772c4.10804,-0.0862 8.74701,-0.57827 12.69941,0.07684zM328.96447,182.03553c0,0 -2,-2 -2,-2c-0.90482,-0.90482 -1.46447,-2.15482 -1.46447,-3.53553c0,-2.55558 1.91727,-4.66335 4.39189,-4.96339c0.28343,-0.75772 0.77185,-1.58446 1.61351,-2.18371c0.02586,-0.45234 0.17553,-1.86383 1.0419,-3.04874c-0.41374,-0.98022 -0.82171,-1.9614 -0.98273,-3.00325c-0.09744,-0.63044 0.47938,-1.27084 0.31603,-1.8875c-0.08459,-0.31932 -0.6638,-0.16469 -0.91613,-0.37788c-0.84566,-0.71445 -1.63822,-1.50222 -2.33118,-2.36559c-0.46058,-0.57384 -3.37802,-5.05104 -4,-6c-2.36116,-2.31247 -4.99031,-5.2528 -7.76194,-6.91669c-0.67762,-0.40679 -1.55583,-0.32837 -2.28476,-0.63385c-6.79557,-2.84793 -13.70534,-4.47425 -20.8875,-5.68397c-1.10068,-0.18539 -2.27346,0.23336 -3.34786,-0.06919c-1.4349,-0.40408 -2.56838,-1.58446 -4,-2c-0.8493,-0.24651 -1.78009,0.21614 -2.65214,0.06919c-4.89663,-0.82514 -9.5805,-2.99848 -14.40435,-4.08288c-3.84438,-0.86421 -6.96483,-0.85256 -10.79474,-0.85256c-17.33334,0 -34.66666,0 -52,0c-7.9957,0 -16.57254,0.97173 -24.49269,-0.02434c-4.27709,-0.5379 -8.05498,-1.88776 -12.08845,-3.23225c-4.85518,-1.62508 -10.89015,-1.93051 -15.44163,-4.17084c-4.22376,-2.07902 -11.42812,-6.7779 -14.23048,-10.94392c-2.84081,-4.22319 -2.74675,-9.81741 -2.74675,-14.62865c0,-9.83239 0.04843,-19.40325 3.00592,-28.80578c-0.07957,-7.5337 -0.86533,-15.02901 -6.63819,-20.75814c-4.2068,-4.17494 -9.98176,-6.74231 -13.99638,-11.18282c-4.42049,-1.31108 -10.56637,-4.50497 -13.90688,-7.71772c-0.89903,-0.86465 -1.22305,-2.20921 -2.09674,-3.09946c-1.59249,-1.6227 -3.52948,-2.93062 -5.56448,-3.9445c-1.79473,-0.89417 -3.88003,-1.06758 -5.71666,-1.87218c-1.12352,-0.49219 -2.06655,-1.38105 -3.23535,-1.75315c-2.8562,-0.90932 -5.25814,1.2998 -7.70247,2c-0.86554,0.24794 -1.84439,-0.36156 -2.69984,-0.08078c-0.89485,0.2937 -1.41383,1.27693 -2.25217,1.70612c-7.33355,3.75446 -14.75297,6.09736 -20.66122,12.04396c-13.06334,13.06334 -25.86021,26.42711 -35.04396,42.66122c-2.42945,4.29452 -1.49158,10.13752 -1.49158,14.80325c0,10.57856 -0.60352,21.12482 1.96254,31.38908c-0.15103,3.86177 2.36291,5.95497 2.97289,9.81001c0.18068,1.14186 -0.47457,2.3669 -0.11686,3.46624c0.46412,1.42637 1.67819,2.48754 2.46889,3.76219c2.31727,3.73555 4.20637,5.99524 7.24807,9.03695c1.32612,1.32611 2.1574,3.26666 3.82375,4.12716c2.17228,1.12177 7.4069,0.40838 9.64071,0.40838c5.36608,0 11.06063,0.53339 16.38909,0.03746c5.44042,-0.50635 10.92496,-3.51606 16.21297,-4.83806c3.34754,-1.10322 5.85894,-2.81117 8.88831,-4.52395c2.31239,-1.30741 4.91227,-2.02969 7.31288,-3.16703c0.6642,-0.31467 1.49001,-0.94553 2.35954,-1.63867c-0.70508,-0.45083 -1.3833,-0.92973 -1.91117,-1.56074c-1.16502,-1.39264 -1.71744,-3.19958 -2.57616,-4.79938c-5.12892,-7.64472 -10.12764,-15.10944 -13.36487,-23.77491c-2.79808,-7.48992 -4.7468,-15.44138 -7.92997,-22.82131c-0.59041,-1.36881 -1.41568,-2.62857 -2,-4c-0.72274,-1.6963 -0.64736,-3.72699 -1.63385,-5.28476c-0.53763,-0.84898 -1.65915,-1.26102 -2.09775,-2.16516c-0.79446,-1.63774 -0.99981,-3.50054 -1.49971,-5.25081c0,0 -1.21268,-4.85071 3.63803,-6.06339c4.85071,-1.21268 6.0634,3.63803 6.0634,3.63803c0.16676,0.91639 0.06789,1.92419 0.50029,2.74919c0.40897,0.7803 1.46213,1.07167 1.90225,1.83484c1.65823,2.87531 3.05476,7.63732 4.36615,10.71524c4.17696,9.80362 6.87362,20.23181 11,30c2.32538,5.50477 6.41716,10.44534 9.70515,15.40378c0.47462,1.06688 0.67902,2.30133 1.42384,3.20062c1.39957,1.68983 3.72253,2.4461 5.11832,4.13907c2.22157,2.69457 3.9861,6.07739 7.33004,7.67837c1.09692,0.52517 2.39317,0.6058 3.4319,1.23832c0.59175,0.36034 0.63535,1.39244 1.28476,1.63385c0.66269,0.24635 1.3806,-0.3427 2.08658,-0.3806c0.68732,-0.03689 1.38005,-0.07247 2.07017,-0.06588c0.08666,-1.05235 0.17945,-2.1047 -0.00561,-3.13321c-0.18666,-1.03743 -0.83466,-1.95896 -1,-3c-0.12323,-0.77587 0.40663,-1.60951 0.14997,-2.35199c-0.39265,-1.1359 -1.63018,-1.85647 -2,-3c-0.37449,-1.15798 0.05747,-2.44879 -0.14997,-3.64801c-0.17967,-1.03867 -0.83698,-1.95859 -1,-3c-0.3093,-1.97594 0.33181,-4.02771 0,-6c-0.58584,-3.4822 -2.5713,-6.58016 -3.02711,-10.18999c-0.07232,-0.57273 0.57921,-1.1707 0.34314,-1.6975c-0.38554,-0.86038 -1.69303,-1.10856 -2,-2c-0.45784,-1.32958 -0.3806,-6.0593 -0.3806,-7.91341c0,-2.01838 0.55589,-4.09054 0.09022,-6.05446c-0.41414,-1.74663 -1.61178,-3.24743 -2,-5c-0.29879,-1.34887 0.17066,-2.77708 -0.02566,-4.14463c-0.14978,-1.0434 -0.82671,-1.96025 -1,-3c-0.1644,-0.9864 0.15297,-2.01177 0,-3c-0.47232,-3.05134 -2.47767,-5.92616 -3,-9c-0.13161,-0.77448 0.37855,-1.60039 0.14997,-2.35199c-0.58933,-1.93781 -2.53172,-3.18212 -3.53909,-4.93928c-1.39538,-2.43398 -2.91635,-4.80147 -4.16702,-7.31288c-0.39803,-0.79926 -0.29973,-1.80399 -0.76168,-2.5681c-0.48777,-0.80683 -1.51493,-1.19155 -2,-2c-0.80371,-1.33952 -1.09349,-3.07969 -2.28228,-4.09312c0,0 -3.53553,-3.53554 0,-7.07107c3.53553,-3.53554 7.07107,0 7.07107,0c3.21668,3.44057 4.88834,7.21925 6.95604,11.33878c2.27332,4.5292 6.6323,8.97441 8.29389,13.74784c0.40009,1.14938 -0.04612,2.44688 0.14997,3.64801c0.49855,3.05378 2.4592,5.92391 3,9c0.17315,0.98489 -0.1644,2.0136 0,3c0.17329,1.03975 0.85168,1.9564 1,3c0.18084,1.27236 -0.30532,2.60102 -0.02566,3.85537c0.39063,1.75204 1.6308,3.24332 2,5c0.10846,0.51605 0.09022,6.58967 0.09022,7.94554c0,1 0.09274,2.00431 0,3c-0.03559,0.38211 -0.5589,0.74675 -0.3806,1.08658c0.43802,0.83488 1.67146,1.11629 2,2c0.50136,1.34854 0.11976,2.88123 0.34314,4.3025c0.53337,3.3936 2.41553,6.44734 2.9729,9.81001c0.32704,1.97308 -0.35416,4.0316 0,6c0.18666,1.03744 0.83466,1.95896 1,3c0.12322,0.77587 -0.40663,1.60951 -0.14998,2.35199c0.39264,1.1359 1.63018,1.85647 2,3c0.37449,1.15798 -0.05746,2.44879 0.14998,3.64801c0.17967,1.03867 0.83698,1.95859 1,3c0.24708,1.57846 -0.1266,3.2078 -0.1064,4.80289c0.05632,-0.00132 0.11331,-0.00198 0.17096,-0.00198c5,0 5,5 5,5l-4,4.8v0.2c0,0 0,5 -5,5c-4.6288,0 -4.97245,-4.28517 -4.99796,-4.92142c-0.26425,-0.04657 -0.53167,-0.09433 -0.80295,-0.14314c-2.66345,-0.47922 -5.53379,0.50484 -8.1125,-0.31603c-1.14396,-0.36416 -1.68218,-1.75456 -2.71524,-2.36615c-1.3588,-0.80444 -2.87535,-1.34936 -4.29924,-2.03812c-0.0412,0.71694 -0.0721,1.33495 -0.0721,1.78486c0,8.60361 0,17.20722 0,25.81083c1.48534,1.86334 0.85071,4.40185 0.85071,4.40185l-1.05011,4.18526c-1.24108,3.44707 -0.8006,6.94583 -0.8006,10.60206c0,6.26703 0.04188,12.5347 -0.06457,18.80091c-0.31723,1.00552 -1.83045,5.59113 -1.97289,6.81001c-0.16213,1.38726 0.17041,2.80733 -0.02711,4.18999c-0.14906,1.0435 -0.85022,1.9566 -1,3c-0.19632,1.36755 0.27314,2.79576 -0.02566,4.14463c-0.38822,1.75257 -1.62954,3.24359 -2,5c-0.60919,2.88825 0.443,5.93322 0.02566,8.85537c-0.33415,2.3396 -1.63854,4.47043 -1.97289,6.81c-0.29191,2.0426 0.29199,4.15147 -0.02711,6.19c-0.16302,1.04141 -0.81334,1.96256 -1,3c-0.44987,2.50031 0.09109,5.6516 0.06457,8.19909c-0.01111,1.06652 0.07716,2.14197 -0.06457,3.19909c-0.02126,0.15857 -0.55528,0.22727 -0.3999,0.26538c2.52791,0.61996 3.60798,1.76528 6.41,1.62575c1.66666,0.66667 3.24359,1.62953 5,2c2.62718,0.55413 5.36947,-0.09022 8.05446,-0.09022c6.66666,0 13.33334,0 20,0c2.02852,0 6.38667,-0.84317 8.87059,0.14179c-0.02332,-0.64452 0.08882,-1.3118 0.19397,-1.9427c0.28949,-1.7369 0.9573,-3.43837 0.93544,-5.19909c-0.07862,-6.33098 0,-12.6685 0,-19c0.07152,-1.48298 -0.20855,-3.02578 0.21454,-4.44892c0.34249,-1.15202 1.66983,-1.84439 2,-3c0.3663,-1.28203 -0.42317,-2.7356 0,-4c1.01325,-3.02751 5.22829,-7.78077 7.87205,-9.17048c1.66739,-0.87647 4.00444,0.20306 5.59288,-0.80949c2.7091,-1.72691 5.36271,-3.91045 8.51963,-4.50654c3.94731,-0.74534 8.77427,-0.06456 12.80091,-0.06456c4.32233,0 7.19275,-0.45527 11.50731,-0.97566c2.90652,-0.35056 5.99589,0.42555 8.88178,0.01313c1.40283,-0.20048 5.59555,-1.58974 6.81001,-1.9729c12.89007,-0.21895 26.34019,1.03525 39,-1c2.45853,-0.39524 4.72492,-1.67504 7.19,-2.0271c3.0358,-0.43357 6.53644,-0.03746 9.61091,-0.03746c1.6347,0 6.94428,-0.07724 7.91341,0.3806c4.55088,2.14989 4.59792,4.73142 6.02202,8.81849c0.16303,9.59747 0.06457,19.20204 0.06457,28.80091c0,2 0.02083,4.00011 0,6c-0.01111,1.06652 -0.00089,2.13441 -0.06457,3.19909c-0.01091,0.18241 -0.31651,0.4337 -0.15816,0.5249c0.89704,0.51666 2.04545,0.50653 2.9175,1.06433c4.70278,3.00808 8.66563,6.52098 14.03996,8.52225c1.38418,0.51544 2.93237,0.53052 4.28804,1.11686c0.9219,0.39873 1.49208,1.41778 2.42615,1.78711c1.41232,0.55842 3.03237,-0.21454 4.55108,-0.21454c1,0 2.00007,-0.01241 3,0c0.73329,0.0091 1.47843,-0.07126 2.19909,0.06457c0.15722,0.02963 0.25119,0.55925 0.26538,0.3999c0.28377,-3.18686 2.06336,-6.07501 2.6001,-9.26538c0.33181,-1.97228 -0.3093,-4.02406 0,-6c0.82031,-5.2405 3.47996,-10.51373 3.97289,-15.81001c0.70887,-7.61641 -0.03746,-15.72602 -0.03746,-23.38908c0,-5 0,-10 0,-15c0,-0.60121 -0.01038,-6.33639 0.03746,-6.61092c0.34735,-1.99343 0.76925,-4.01275 1.61154,-5.85258c0.31337,-0.68451 1.3777,-0.78546 1.7316,-1.44992c0.18041,-0.33872 -0.35197,-0.70389 -0.3806,-1.08659c-0.02158,-0.28839 -0.00214,-7.3985 0.06457,-7.80091c0.34473,-2.07981 1.65024,-3.92103 2,-6c0.12394,-0.73667 0.19715,-1.50227 0.2347,-2.28618c-0.32477,-0.42771 -0.60641,-0.88533 -0.8348,-1.37738z" fill="#000000"/><path d="M18.58757,234.53574c-0.74427,-4.14116 -0.10843,-8.931 -0.10843,-12.9903c0,-3.26302 -0.44788,-6.99258 -0.0757,-10.20611c0.24254,-2.09419 1.68714,-3.92169 1.9926,-6.00763c0.38638,-2.63852 -0.38731,-5.39842 -0.01005,-8.03827c0.35228,-2.46505 1.67851,-4.75928 2.046,-7.22211c0.41571,-2.78602 -0.58678,-3.00844 0.62114,-5.59463c1.7427,-3.73117 3.84901,-7.4176 5.1747,-11.404c1.0257,-3.08435 1.22025,-7.62043 2.67201,-11.00942c0.66874,0.71328 1.38118,1.36901 2.24678,1.79544c2.02174,0.99599 4.26604,1.41213 6.54774,1.57003c0.11056,1.37283 0.18658,2.74207 -0.08703,4.07873c-0.77509,3.78652 -3.45098,7.22075 -4.02558,11.14466c-0.33808,2.30871 0.42176,4.70764 0.00858,7.0041c-0.18666,1.03743 -0.83399,1.96054 -0.99701,3.00195c-0.48085,3.07186 -0.04608,6.73896 -0.04608,9.85819c0,8 -0.03688,16.03254 -0.03688,24.03254c0,3.34511 -0.47268,7.15877 -0.17689,10.58145c-0.95499,-0.28995 -2.17074,-0.37358 -3.02938,-0.5159c-3.9524,-0.65512 -8.60848,-0.16491 -12.71651,-0.07872z" data-paper-data="{&quot;noHover&quot;:false,&quot;origItem&quot;:[&quot;Path&quot;,{&quot;applyMatrix&quot;:true,&quot;segments&quot;:[[[31.30091,234.56456],[-3.9524,-0.65512],[0.85864,0.14232]],[[34.32626,235.08089],[-0.95499,-0.28995],[-0.29579,-3.42268]],[[34.5,224.5],[0,3.34511],[0,-8]],[[34.5,200.5],[0,8],[0,-3.11923]],[[34.56456,190.69909],[-0.48085,3.07186],[0.16301,-1.04141]],[[35.56456,187.69909],[-0.18666,1.03743],[0.41319,-2.29646]],[[35.56456,180.69909],[-0.33808,2.30871],[0.5746,-3.92391]],[[39.59022,169.55446],[-0.77509,3.78652],[0.27361,-1.33666]],[[39.67903,165.47634],[0.11056,1.37283],[-2.2817,-0.1579]],[[33.14071,163.90838],[2.02174,0.99599],[-0.8656,-0.42642]],[[30.89726,162.11322],[0.66874,0.71328],[-1.45175,3.38898]],[[28.22937,173.12268],[1.0257,-3.08435],[-1.32568,3.9864]],[[23.07257,184.52277],[1.7427,-3.73117],[-1.20792,2.58619]],[[22.46254,190.11092],[0.41571,-2.78602],[-0.36749,2.46283]],[[20.43543,197.30091],[0.35228,-2.46505],[-0.37727,2.63985]],[[20.43543,205.30091],[0.38638,-2.63852],[-0.30545,2.08594]],[[18.43543,211.30091],[0.24254,-2.09419],[-0.37219,3.21353]],[[18.5,221.5],[0,-3.26302],[0,4.0593]],[[18.6015,234.48772],[-0.74427,-4.14116],[4.10804,-0.0862]]],&quot;closed&quot;:true}]}" fill="#737373"/><path d="M329.84826,183.42289c-0.03755,0.78391 -0.11091,1.55022 -0.23485,2.28689c-0.34976,2.07897 -1.65574,3.92214 -2.00047,6.00195c-0.0667,0.40241 -0.0868,7.51481 -0.06522,7.8032c0.02864,0.3827 0.56092,0.74814 0.38051,1.08686c-0.3539,0.66446 -1.41842,0.76599 -1.73179,1.45049c-0.84229,1.83983 -1.26483,3.86095 -1.61218,5.85438c-0.04784,0.27453 -0.03817,6.01149 -0.03817,6.6127c0,5 -0.00176,10.00374 -0.00176,15.00374c0,7.66306 0.74336,15.77764 0.0345,23.39405c-0.49293,5.29627 -3.15504,10.57282 -3.97535,15.81332c-0.3093,1.97594 0.33103,4.02866 -0.00078,6.00095c-0.53674,3.19037 -2.31783,6.0802 -2.6016,9.26706c-0.01419,0.15935 -0.10814,-0.37029 -0.26536,-0.39992c-0.72066,-0.13582 -1.46606,-0.05518 -2.19935,-0.06429c-0.99993,-0.01241 -2.00037,0.00039 -3.00037,0.00039c-1.51871,0 -3.13938,0.77359 -4.5517,0.21517c-0.93407,-0.36933 -1.50434,-1.38829 -2.42624,-1.78702c-1.35566,-0.58634 -2.90431,-0.60098 -4.28849,-1.11642c-5.37433,-2.00126 -9.33809,-5.51331 -14.04087,-8.52138c-0.87205,-0.5578 -2.02078,-0.54738 -2.91782,-1.06404c-0.15835,-0.09121 0.07987,-0.41638 0.09078,-0.59879c0.06368,-1.06468 0.05294,-2.1321 0.06405,-3.19862c0.02083,-1.99989 -0.00096,-3.99907 -0.00096,-5.99907c0,-9.59887 0.09354,-19.19777 -0.06948,-28.79524c-1.4241,-4.08707 -1.39005,-6.61008 -5.94094,-8.75997c-0.96914,-0.45783 -6.27976,-0.37916 -7.91447,-0.37916c-3.07448,0 -6.57675,-0.39406 -9.61255,0.03951c-2.46508,0.35207 -4.73339,1.63402 -7.19192,2.02926c-12.65981,2.03525 -26.12319,0.79106 -39.01326,1.01001c-1.21446,0.38315 -5.41098,1.77419 -6.81381,1.97467c-2.88589,0.41243 -5.98008,-0.36196 -8.88661,-0.01139c-4.31456,0.5204 -7.19204,0.97725 -11.51437,0.97725c-4.02663,0 -8.86179,-0.68023 -12.80909,0.06511c-3.15691,0.59609 -5.81563,2.77929 -8.52473,4.5062c-1.58844,1.01255 -3.9287,-0.06747 -5.59609,0.80901c-2.64376,1.38971 -6.86193,6.14228 -7.87517,9.1698c-0.42317,1.2644 0.36678,2.71809 0.00048,4.00012c-0.33017,1.15561 -1.6581,1.84783 -2.00059,2.99985c-0.42309,1.42314 -0.11874,2.86894 -0.19025,4.35191c0,6.3315 -0.08039,12.66862 -0.00177,18.9996c0.02186,1.76072 -0.646,3.46218 -0.93549,5.19908c-0.10515,0.63089 -0.23746,1.39612 -0.21413,2.04064c-2.48391,-0.98496 -6.84523,-0.14254 -8.87375,-0.14254c-6.66666,0 -13.33982,-0.00226 -20.00648,-0.00226c-2.68499,0 -5.4296,0.64328 -8.05678,0.08915c-1.75641,-0.37047 -3.33499,-1.33418 -5.00165,-2.00085c-2.80203,0.13953 -3.884,-1.00687 -6.41191,-1.62683c-0.15538,-0.0381 0.3787,-0.10677 0.39996,-0.26534c0.14172,-1.05712 0.05298,-2.13285 0.06409,-3.19937c0.02653,-2.54749 -0.51577,-5.69963 -0.0659,-8.19993c0.18666,-1.03744 0.83673,-1.95875 0.99975,-3.00016c0.3191,-2.03853 -0.2659,-4.14814 0.02601,-6.19074c0.33436,-2.33957 1.63798,-4.47095 1.97213,-6.81055c0.41734,-2.92215 -0.63667,-5.9685 -0.02747,-8.85676c0.37046,-1.75641 1.61123,-3.24788 1.99945,-5.00045c0.29879,-1.34887 -0.17161,-2.77788 0.02471,-4.14543c0.14978,-1.0434 0.85049,-1.95689 0.99956,-3.00039c0.19751,-1.38266 -0.13604,-2.80367 0.02609,-4.19092c0.14244,-1.21888 1.65443,-5.80568 1.97166,-6.8112c0.10644,-6.26621 0.0593,-12.54011 0.0593,-18.80714c0,-3.65623 -0.44339,-7.15958 0.79769,-10.60665l1.0491,-4.18717c0,0 0.63334,-2.54126 -0.852,-4.40459c0,-8.60361 -0.00406,-17.22518 -0.00406,-25.82879c0,-0.44992 0.13087,-1.07027 0.17207,-1.78721c1.4239,0.68876 2.94039,1.23198 4.29919,2.03642c1.03306,0.61158 1.57115,1.99987 2.7151,2.36403c2.57872,0.82088 5.44896,-0.16418 8.11241,0.31504c0.27129,0.04881 0.53869,0.09635 0.80293,0.14292c0.02551,0.63625 0.36813,4.91553 4.99694,4.91553c5,0 4.90179,-4.98176 4.90179,-4.98176l-0.00003,-0.20025l3.99957,-4.80597c0,0 0.00031,-5.00622 -4.99969,-5.00622c-0.05765,0 -0.11464,0.00069 -0.17096,0.00201c-0.02021,-1.59509 0.35445,-3.23011 0.10737,-4.80857c-0.16302,-1.04141 -0.81953,-1.96435 -0.9992,-3.00301c-0.20744,-1.19922 0.22577,-2.49369 -0.14873,-3.65167c-0.36982,-1.14353 -1.60653,-1.86612 -1.99917,-3.00202c-0.25665,-0.74248 0.27416,-1.5782 0.15094,-2.35406c-0.16534,-1.04104 -0.81232,-1.96453 -0.99898,-3.00197c-0.35416,-1.9684 0.3296,-4.03109 0.00256,-6.00417c-0.55737,-3.36267 -2.43639,-6.42053 -2.96976,-9.81412c-0.22338,-1.42127 0.15978,-2.95571 -0.34158,-4.30425c-0.32855,-0.88371 -1.56192,-1.16517 -1.99995,-2.00005c-0.1783,-0.33984 0.34554,-0.70503 0.38113,-1.08714c0.09274,-0.99569 0.00108,-2.00109 0.00108,-3.00109c0,-1.35587 0.02089,-7.4319 -0.08757,-7.94795c-0.3692,-1.75668 -1.60857,-3.24863 -1.9992,-5.00066c-0.27966,-1.25436 0.20763,-2.5839 0.02679,-3.85626c-0.14832,-1.0436 -0.82624,-1.9606 -0.99953,-3.00035c-0.1644,-0.9864 0.17396,-2.01569 0.0008,-3.00059c-0.5408,-3.07609 -2.50029,-5.94703 -2.99884,-9.0008c-0.19609,-1.20113 0.25089,-2.49914 -0.1492,-3.64852c-1.66159,-4.77343 -6.02039,-9.21876 -8.29371,-13.74795c-2.0677,-4.11953 -3.68548,-7.81396 -6.90216,-11.25453c0,0 -3.53371,-3.53676 -7.06924,-0.00122c-3.53553,3.53554 0.00126,7.07015 0.00126,7.07015c1.18879,1.01343 1.47877,2.75345 2.28248,4.09297c0.48507,0.80845 1.5121,1.19327 1.99987,2.0001c0.46195,0.76411 0.36396,1.7686 0.76199,2.56786c1.25067,2.51141 2.77205,4.87859 4.16743,7.31257c1.00737,1.75717 2.94986,3.0014 3.53918,4.93921c0.22858,0.7516 -0.28099,1.57703 -0.14938,2.35152c0.52233,3.07384 2.52902,5.94753 3.00134,8.99887c0.15297,0.98823 -0.16361,2.0129 0.00079,2.9993c0.17329,1.03975 0.85074,1.95613 1.00052,2.99952c0.19632,1.36755 -0.27198,2.79464 0.02682,4.14351c0.38822,1.75257 1.58676,3.25245 2.0009,4.99908c0.46567,1.96393 -0.08831,4.03396 -0.08831,6.05234c0,1.85412 -0.07478,6.58072 0.38305,7.91029c0.30697,0.89144 1.61465,1.13936 2.00019,1.99974c0.23606,0.5268 -0.41481,1.12383 -0.34249,1.69656c0.45581,3.60984 2.44409,6.7031 3.02993,10.1853c0.33181,1.97228 -0.30738,4.01999 0.00192,5.99593c0.16302,1.04141 0.8211,1.95939 1.00077,2.99805c0.20744,1.19922 -0.22355,2.48716 0.15094,3.64514c0.36982,1.14353 1.60794,1.86201 2.00058,2.99791c0.25665,0.74248 -0.2727,1.57398 -0.14947,2.34984c0.16534,1.04104 0.81382,1.95993 1.00048,2.99736c0.18506,1.02851 0.09264,2.07783 0.00598,3.13017c-0.69012,-0.0066 -1.38283,0.02874 -2.07015,0.06564c-0.70598,0.03789 -1.52355,0.61877 -2.18625,0.37242c-0.64941,-0.24141 -0.69289,-1.27487 -1.28464,-1.63521c-1.03872,-0.63252 -2.3349,-0.71388 -3.43182,-1.23905c-3.34395,-1.60098 -5.10764,-4.98869 -7.32921,-7.68326c-1.39579,-1.69296 -3.71828,-2.45116 -5.11785,-4.14099c-0.74482,-0.89929 -0.94874,-2.13547 -1.42335,-3.20234c-3.28799,-4.95844 -7.37746,-9.90518 -9.70284,-15.40994c-4.12638,-9.76819 -6.81807,-20.20496 -10.99504,-30.00858c-1.31139,-3.07792 -2.70644,-7.84188 -4.36467,-10.71719c-0.44012,-0.76317 -1.49322,-1.05461 -1.90219,-1.83492c-0.43239,-0.825 -0.33308,-1.83334 -0.49984,-2.74973c0,0 -1.13523,-4.78746 -5.98594,-3.57478c-4.85071,1.21268 -3.63647,6.06136 -3.63647,6.06136c0.4999,1.75027 0.70599,3.61204 1.50045,5.24978c0.4386,0.90414 1.56024,1.31599 2.09787,2.16497c0.98649,1.55777 0.91188,3.58731 1.63462,5.28361c0.58432,1.37143 1.4101,2.63039 2.0005,3.9992c3.18318,7.37993 5.1353,15.32484 7.93338,22.81476c3.23723,8.66547 8.23895,16.12068 13.36788,23.7654c0.85872,1.5998 1.4116,3.40417 2.57663,4.79682c0.52787,0.63101 1.20621,1.10912 1.91129,1.55995c-0.86953,0.69314 -1.69519,1.32279 -2.35939,1.63746c-2.40061,1.13734 -5.00028,1.85734 -7.31267,3.16475c-3.02936,1.71278 -5.54066,3.41807 -8.8882,4.52128c-5.28801,1.322 -10.77257,4.32945 -16.21299,4.8358c-5.32845,0.49592 -11.12296,-0.03458 -16.48904,-0.03458c-2.23381,0 -7.46844,0.71315 -9.64072,-0.40862c-1.66635,-0.8605 -2.49765,-2.80253 -3.82377,-4.12864c-3.04171,-3.04171 -4.93068,-5.3044 -7.24796,-9.03995c-0.7907,-1.27465 -2.00468,-2.33699 -2.4688,-3.76336c-0.35771,-1.09934 0.29765,-2.3255 0.11698,-3.46737c-0.60998,-3.85504 -3.12349,-5.9512 -2.97246,-9.81297c-2.56606,-10.26426 -1.96012,-20.81939 -1.96012,-31.39795c0,-4.66572 -0.93623,-10.51259 1.49321,-14.80711c9.18375,-16.23411 21.98987,-29.61125 35.05322,-42.67459c5.90825,-5.9466 13.33298,-8.29426 20.66653,-12.04871c0.83834,-0.42919 1.35801,-1.41294 2.25286,-1.70664c0.85545,-0.28077 1.83484,0.32833 2.70038,0.08039c2.44433,-0.7002 4.8482,-2.91066 7.7044,-2.00134c1.1688,0.37211 2.1123,1.26065 3.23582,1.75285c1.83663,0.8046 3.92301,0.97733 5.71774,1.8715c2.035,1.01387 3.9728,2.32132 5.5653,3.94402c0.87368,0.89025 1.19778,2.23476 2.09681,3.09941c3.34051,3.21275 9.48924,6.40511 13.90973,7.71619c4.01462,4.44051 9.79272,7.00646 13.99952,11.1814c5.77286,5.72914 6.59763,13.31652 6.67719,20.85022c-2.95749,9.40253 -2.99637,18.96791 -2.99637,28.8003c0,4.81124 -0.08932,10.40153 2.75149,14.62471c2.80237,4.16602 9.94135,8.78933 14.16512,10.86835c4.55148,2.24033 10.60482,2.53655 15.46,4.16164c4.03347,1.34449 7.8389,2.69494 12.11599,3.23284c7.92015,0.99606 16.5243,0.04513 24.52,0.04513c17.33334,0 34.67321,0.01543 52.00654,0.01543c3.82991,0 6.95073,-0.00995 10.79511,0.85426c4.82385,1.08439 9.50825,3.26084 14.40487,4.08598c0.87205,0.14695 1.80286,-0.31557 2.65216,-0.06906c1.43162,0.41554 2.56523,1.59701 4.00013,2.00108c1.0744,0.30256 2.24719,-0.11602 3.34788,0.06937c7.18216,1.20971 14.09215,2.83887 20.88772,5.6868c0.72893,0.30549 1.60715,0.22732 2.28477,0.63412c2.77163,1.66389 5.40083,4.60666 7.76199,6.91913c0.62198,0.94896 3.53938,5.42812 3.99995,6.00196c0.69296,0.86337 1.48547,1.65186 2.33114,2.36632c0.25234,0.21319 0.83154,0.05866 0.91613,0.37798c0.16335,0.61666 -0.41352,1.25766 -0.31608,1.8881c0.16103,1.04185 0.56891,2.02395 0.98266,3.00418c-0.86636,1.1849 -1.01614,2.59739 -1.042,3.04973c-0.84166,0.59925 -1.33017,1.42674 -1.6136,2.18446c-2.47461,0.30004 -4.39215,2.4096 -4.39215,4.96518c0,1.38071 0.55946,2.63176 1.46428,3.53658c0,0 1.9999,2.0005 1.9999,2.0005c0.22838,0.49205 0.50996,0.95004 0.83472,1.37775z" data-paper-data="{&quot;noHover&quot;:false,&quot;origItem&quot;:[&quot;Path&quot;,{&quot;applyMatrix&quot;:true,&quot;segments&quot;:[[[328.96447,182.03553],[0.22838,0.49205],[0,0]],[[326.96447,180.03553],[0,0],[-0.90482,-0.90482]],[[325.5,176.5],[0,1.38071],[0,-2.55558]],[[329.89189,171.53661],[-2.47461,0.30004],[0.28343,-0.75772]],[[331.5054,169.3529],[-0.84166,0.59925],[0.02586,-0.45234]],[[332.5473,166.30416],[-0.86636,1.1849],[-0.41374,-0.98022]],[[331.56457,163.30091],[0.16103,1.04185],[-0.09744,-0.63044]],[[331.8806,161.41341],[0.16335,0.61666],[-0.08459,-0.31932]],[[330.96447,161.03554],[0.25234,0.21319],[-0.84566,-0.71445]],[[328.63329,158.66995],[0.69296,0.86337],[-0.46058,-0.57384]],[[324.63329,152.66995],[0.62198,0.94896],[-2.36116,-2.31247]],[[316.87135,145.75326],[2.77163,1.66389],[-0.67762,-0.40679]],[[314.58659,145.1194],[0.72893,0.30549],[-6.79557,-2.84793]],[[293.69909,139.43544],[7.18216,1.20971],[-1.10068,-0.18539]],[[290.35123,139.36625],[1.0744,0.30256],[-1.4349,-0.40408]],[[286.35123,137.36625],[1.43162,0.41554],[-0.8493,-0.24651]],[[283.69909,137.43544],[0.87205,0.14695],[-4.89663,-0.82514]],[[269.29474,133.35256],[4.82385,1.08439],[-3.84438,-0.86421]],[[258.5,132.5],[3.82991,0],[-17.33334,0]],[[206.5,132.5],[17.33334,0],[-7.9957,0]],[[182.00731,132.47567],[7.92015,0.99606],[-4.27709,-0.5379]],[[169.91886,129.24342],[4.03347,1.34449],[-4.85518,-1.62508]],[[154.47723,125.07257],[4.55148,2.24033],[-4.22376,-2.07902]],[[140.24675,114.12866],[2.80237,4.16602],[-2.84081,-4.22319]],[[137.5,99.5],[0,4.81124],[0,-9.83239]],[[140.50592,70.69422],[-2.95749,9.40253],[-0.07957,-7.5337]],[[133.86773,49.93608],[5.77286,5.72914],[-4.2068,-4.17494]],[[119.87135,38.75326],[4.01462,4.44051],[-4.42049,-1.31108]],[[105.96447,31.03554],[3.34051,3.21275],[-0.89903,-0.86465]],[[103.86773,27.93608],[0.87368,0.89025],[-1.59249,-1.6227]],[[98.30325,23.99158],[2.035,1.01387],[-1.79473,-0.89417]],[[92.58659,22.1194],[1.83663,0.8046],[-1.12352,-0.49219]],[[89.35124,20.36625],[1.1688,0.37211],[-2.8562,-0.90932]],[[81.64877,22.36625],[2.44433,-0.7002],[-0.86554,0.24794]],[[78.94892,22.28546],[0.85545,-0.28077],[-0.89485,0.2937]],[[76.69676,23.99158],[0.83834,-0.42919],[-7.33355,3.75446]],[[56.03554,36.03554],[5.90825,-5.9466],[-13.06334,13.06334]],[[20.99158,78.69676],[9.18375,-16.23411],[-2.42945,4.29452]],[[19.5,93.5],[0,-4.66572],[0,10.57856]],[[21.46254,124.88909],[-2.56606,-10.26426],[-0.15103,3.86177]],[[24.43544,134.69909],[-0.60998,-3.85504],[0.18068,1.14186]],[[24.31858,138.16533],[-0.35771,-1.09934],[0.46412,1.42637]],[[26.78747,141.92752],[-0.7907,-1.27465],[2.31727,3.73555]],[[34.03554,150.96446],[-3.04171,-3.04171],[1.32612,1.32611]],[[37.85929,155.09163],[-1.66635,-0.8605],[2.17228,1.12177]],[[47.5,155.5],[-2.23381,0],[5.36608,0]],[[63.88909,155.53746],[-5.32845,0.49592],[5.44042,-0.50635]],[[80.10206,150.6994],[-5.28801,1.322],[3.34754,-1.10322]],[[88.99037,146.17545],[-3.02936,1.71278],[2.31239,-1.30741]],[[96.30325,143.00842],[-2.40061,1.13734],[0.6642,-0.31467]],[[98.66279,141.36976],[-0.86953,0.69314],[-0.70508,-0.45083]],[[96.75161,139.80901],[0.52787,0.63101],[-1.16502,-1.39264]],[[94.17545,135.00964],[0.85872,1.5998],[-5.12892,-7.64472]],[[80.81058,111.23473],[3.23723,8.66547],[-2.79808,-7.48992]],[[72.8806,88.41342],[3.18318,7.37993],[-0.59041,-1.36881]],[[70.8806,84.41342],[0.58432,1.37143],[-0.72274,-1.6963]],[[69.24675,79.12865],[0.98649,1.55777],[-0.53763,-0.84898]],[[67.149,76.96349],[0.4386,0.90414],[-0.79446,-1.63774]],[[65.64929,71.71268],[0.4999,1.75027],[0,0]],[[69.28732,65.64929],[-4.85071,1.21268],[4.85071,-1.21268]],[[75.35071,69.28732],[0,0],[0.16676,0.91639]],[[75.851,72.03651],[-0.43239,-0.825],[0.40897,0.7803]],[[77.75326,73.87135],[-0.44012,-0.76317],[1.65823,2.87531]],[[82.1194,84.58659],[-1.31139,-3.07792],[4.17696,9.80362]],[[93.1194,114.58659],[-4.12638,-9.76819],[2.32538,5.50477]],[[102.82455,129.99037],[-3.28799,-4.95844],[0.47462,1.06688]],[[104.24839,133.19099],[-0.74482,-0.89929],[1.39957,1.68983]],[[109.36671,137.33005],[-1.39579,-1.69296],[2.22157,2.69457]],[[116.69676,145.00842],[-3.34395,-1.60098],[1.09692,0.52517]],[[120.12866,146.24675],[-1.03872,-0.63252],[0.59175,0.36034]],[[121.41342,147.8806],[-0.64941,-0.24141],[0.66269,0.24635]],[[123.5,147.5],[-0.70598,0.03789],[0.68732,-0.03689]],[[125.57017,147.43412],[-0.69012,-0.0066],[0.08666,-1.05235]],[[125.56457,144.30091],[0.18506,1.02851],[-0.18666,-1.03743]],[[124.56457,141.30091],[0.16534,1.04104],[-0.12323,-0.77587]],[[124.71454,138.94892],[0.25665,0.74248],[-0.39265,-1.1359]],[[122.71454,135.94892],[0.36982,1.14353],[-0.37449,-1.15798]],[[122.56457,132.30091],[0.20744,1.19922],[-0.17967,-1.03867]],[[121.56457,129.30091],[0.16302,1.04141],[-0.3093,-1.97594]],[[121.56457,123.30091],[0.33181,1.97228],[-0.58584,-3.4822]],[[118.53746,113.11092],[0.45581,3.60984],[-0.07232,-0.57273]],[[118.8806,111.41342],[0.23606,0.5268],[-0.38554,-0.86038]],[[116.8806,109.41342],[0.30697,0.89144],[-0.45784,-1.32958]],[[116.5,101.5],[0,1.85412],[0,-2.01838]],[[116.59022,95.44554],[0.46567,1.96393],[-0.41414,-1.74663]],[[114.59022,90.44554],[0.38822,1.75257],[-0.29879,-1.34887]],[[114.56457,86.30091],[0.19632,1.36755],[-0.14978,-1.0434]],[[113.56457,83.30091],[0.17329,1.03975],[-0.1644,-0.9864]],[[113.56457,80.30091],[0.15297,0.98823],[-0.47232,-3.05134]],[[110.56457,71.30091],[0.52233,3.07384],[-0.13161,-0.77448]],[[110.71454,68.94892],[0.22858,0.7516],[-0.58933,-1.93781]],[[107.17545,64.00964],[1.00737,1.75717],[-1.39538,-2.43398]],[[103.00843,56.69676],[1.25067,2.51141],[-0.39803,-0.79926]],[[102.24675,54.12866],[0.46195,0.76411],[-0.48777,-0.80683]],[[100.24675,52.12866],[0.48507,0.80845],[-0.80371,-1.33952]],[[97.96447,48.03554],[1.18879,1.01343],[0,0]],[[97.96447,40.96446],[-3.53553,3.53554],[3.53553,-3.53554]],[[105.03554,40.96446],[0,0],[3.21668,3.44057]],[[111.99158,52.30325],[-2.0677,-4.11953],[2.27332,4.5292]],[[120.28546,66.05108],[-1.66159,-4.77343],[0.40009,1.14938]],[[120.43544,69.69909],[-0.19609,-1.20113],[0.49855,3.05378]],[[123.43544,78.69909],[-0.5408,-3.07609],[0.17315,0.98489]],[[123.43544,81.69909],[-0.1644,-0.9864],[0.17329,1.03975]],[[124.43544,84.69909],[-0.14832,-1.0436],[0.18084,1.27236]],[[124.40978,88.55446],[-0.27966,-1.25436],[0.39063,1.75204]],[[126.40978,93.55446],[-0.3692,-1.75668],[0.10846,0.51605]],[[126.5,101.5],[0,-1.35587],[0,1]],[[126.5,104.5],[0.09274,-0.99569],[-0.03559,0.38211]],[[126.1194,105.58659],[-0.1783,-0.33984],[0.43802,0.83488]],[[128.1194,107.58659],[-0.32855,-0.88371],[0.50136,1.34854]],[[128.46254,111.88909],[-0.22338,-1.42127],[0.53337,3.3936]],[[131.43544,121.69909],[-0.55737,-3.36267],[0.32704,1.97308]],[[131.43544,127.69909],[-0.35416,-1.9684],[0.18666,1.03744]],[[132.43544,130.69909],[-0.16534,-1.04104],[0.12322,0.77587]],[[132.28546,133.05108],[-0.25665,-0.74248],[0.39264,1.1359]],[[134.28546,136.05108],[-0.36982,-1.14353],[0.37449,1.15798]],[[134.43544,139.69909],[-0.20744,-1.19922],[0.17967,1.03867]],[[135.43544,142.69909],[-0.16302,-1.04141],[0.24708,1.57846]],[[135.32904,147.50198],[-0.02021,-1.59509],[0.05632,-0.00132]],[[135.5,147.5],[-0.05765,0],[5,0]],[140.5,152.5],[136.5,157.3],[136.5,157.5],[[131.5,162.5],[5,0],[-4.6288,0]],[[126.50205,157.57858],[0.02551,0.63625],[-0.26425,-0.04657]],[[125.69909,157.43544],[0.27129,0.04881],[-2.66345,-0.47922]],[[117.58659,157.1194],[2.57872,0.82088],[-1.14396,-0.36416]],[[114.87135,154.75326],[1.03306,0.61158],[-1.3588,-0.80444]],[[110.57211,152.71514],[1.4239,0.68876],[-0.0412,0.71694]],[[110.5,154.5],[0,-0.44992],[0,8.60361]],[[110.5,180.31083],[0,-8.60361],[1.48534,1.86334]],[111.35072,184.71268],[[110.3006,188.89794],[0,0],[-1.24108,3.44707]],[[109.5,199.5],[0,-3.65623],[0,6.26703]],[[109.43544,218.30091],[0.10644,-6.26621],[-0.31723,1.00552]],[[107.46254,225.11092],[0.14244,-1.21888],[-0.16213,1.38726]],[[107.43544,229.30091],[0.19751,-1.38266],[-0.14906,1.0435]],[[106.43544,232.30091],[0.14978,-1.0434],[-0.19632,1.36755]],[[106.40978,236.44554],[0.29879,-1.34887],[-0.38822,1.75257]],[[104.40978,241.44554],[0.37046,-1.75641],[-0.60919,2.88825]],[[104.43544,250.30091],[0.41734,-2.92215],[-0.33415,2.3396]],[[102.46254,257.11091],[0.33436,-2.33957],[-0.29191,2.0426]],[[102.43544,263.30091],[0.3191,-2.03853],[-0.16302,1.04141]],[[101.43544,266.30091],[0.18666,-1.03744],[-0.44987,2.50031]],[[101.5,274.5],[0.02653,-2.54749],[-0.01111,1.06652]],[[101.43544,277.69909],[0.14172,-1.05712],[-0.02126,0.15857]],[[101.03554,277.96447],[-0.15538,-0.0381],[2.52791,0.61996]],[[107.44554,279.59022],[-2.80203,0.13953],[1.66666,0.66667]],[[112.44554,281.59022],[-1.75641,-0.37047],[2.62718,0.55413]],[[120.5,281.5],[-2.68499,0],[6.66666,0]],[[140.5,281.5],[-6.66666,0],[2.02852,0]],[[149.37059,281.64179],[-2.48391,-0.98496],[-0.02332,-0.64452]],[[149.56456,279.69909],[-0.10515,0.63089],[0.28949,-1.7369]],[[150.5,274.5],[0.02186,1.76072],[-0.07862,-6.33098]],[[150.5,255.5],[0,6.3315],[0.07152,-1.48298]],[[150.71454,251.05108],[-0.42309,1.42314],[0.34249,-1.15202]],[[152.71454,248.05108],[-0.33017,1.15561],[0.3663,-1.28203]],[[152.71454,244.05108],[-0.42317,1.2644],[1.01325,-3.02751]],[[160.58659,234.8806],[-2.64376,1.38971],[1.66739,-0.87647]],[[166.17947,234.07111],[-1.58844,1.01255],[2.7091,-1.72691]],[[174.69909,229.56457],[-3.15691,0.59609],[3.94731,-0.74534]],[[187.5,229.5],[-4.02663,0],[4.32233,0]],[[199.00731,228.52434],[-4.31456,0.5204],[2.90652,-0.35056]],[[207.88909,228.53746],[-2.88589,0.41243],[1.40283,-0.20048]],[[214.69909,226.56457],[-1.21446,0.38315],[12.89007,-0.21895]],[[253.69909,225.56457],[-12.65981,2.03525],[2.45853,-0.39524]],[[260.88909,223.53746],[-2.46508,0.35207],[3.0358,-0.43357]],[[270.5,223.5],[-3.07448,0],[1.6347,0]],[[278.41342,223.8806],[-0.96914,-0.45783],[4.55088,2.14989]],[[284.43544,232.69909],[-1.4241,-4.08707],[0.16303,9.59747]],[[284.5,261.5],[0,-9.59887],[0,2]],[[284.5,267.5],[0.02083,-1.99989],[-0.01111,1.06652]],[[284.43544,270.69909],[0.06368,-1.06468],[-0.01091,0.18241]],[[284.27727,271.22399],[-0.15835,-0.09121],[0.89704,0.51666]],[[287.19477,272.28833],[-0.87205,-0.5578],[4.70278,3.00808]],[[301.23473,280.81057],[-5.37433,-2.00126],[1.38418,0.51544]],[[305.52277,281.92743],[-1.35566,-0.58634],[0.9219,0.39873]],[[307.94892,283.71454],[-0.93407,-0.36933],[1.41232,0.55842]],[[312.5,283.5],[-1.51871,0],[1,0]],[[315.5,283.5],[-0.99993,-0.01241],[0.73329,0.0091]],[[317.69909,283.56457],[-0.72066,-0.13582],[0.15722,0.02963]],[[317.96447,283.96447],[-0.01419,0.15935],[0.28377,-3.18686]],[[320.56457,274.69909],[-0.53674,3.19037],[0.33181,-1.97228]],[[320.56457,268.69909],[-0.3093,1.97594],[0.82031,-5.2405]],[[324.53746,252.88909],[-0.49293,5.29628],[0.70887,-7.61641]],[[324.5,229.5],[0,7.66306],[0,-5]],[[324.5,214.5],[0,5],[0,-0.60121]],[[324.53746,207.88909],[-0.04784,0.27453],[0.34735,-1.99343]],[[326.149,202.03651],[-0.84229,1.83983],[0.31337,-0.68451]],[[327.8806,200.58659],[-0.3539,0.66446],[0.18041,-0.33872]],[[327.5,199.5],[0.02864,0.3827],[-0.02158,-0.28839]],[[327.56457,191.69909],[-0.0667,0.40241],[0.34473,-2.07981]],[[329.56457,185.69909],[-0.34976,2.07897],[0.12394,-0.73667]],[[329.79926,183.41291],[-0.03755,0.78391],[-0.32477,-0.42771]]],&quot;closed&quot;:true}]}" fill="#737373"/><path d="M42.5,102.5c0,-2.76142 2.23858,-5 5,-5c2.76142,0 5,2.23858 5,5c0,2.76142 -2.23858,5 -5,5c-2.76142,0 -5,-2.23858 -5,-5z" fill="#000000"/></g></g></svg>