<svg version="1.1" xmlns="http://www.w3.org/2000/svg" xmlns:xlink="http://www.w3.org/1999/xlink" width="331.85034" height="256.66359" viewBox="0,0,331.85034,256.66359"><g transform="translate(-85.5,-68.83641)"><g data-paper-data="{&quot;isPaintingLayer&quot;:true}" fill-rule="nonzero" stroke-linecap="butt" stroke-linejoin="miter" stroke-miterlimit="10" stroke-dasharray="" stroke-dashoffset="0" style="mix-blend-mode: normal"><path d="M154.51558,156.74941l-47.75913,-48.40522l38.60893,-38.09358l47.75913,48.40523z" fill="#d600ff" stroke="#000000" stroke-width="2"/><path d="M206.5,133.3688c0,22.57121 -26.86291,40.8688 -60,40.8688c-33.13708,0 -60,-18.29758 -60,-40.8688c0,-22.57121 26.86292,-40.8688 60,-40.8688c33.13709,0 60,18.29758 60,40.8688z" fill="#ffffff" stroke="#000000" stroke-width="2"/><path d="M163.5,316.5v-71h24v71z" fill="#ffffff" stroke="#000000" stroke-width="2"/><path d="M302.5,324.5v-72h27v72z" fill="#ffffff" stroke="#000000" stroke-width="2"/><path d="M391.5,201.5c0,34.24166 -59.54613,62 -133,62c-73.45387,0 -133,-27.75834 -133,-62c0,-34.24166 59.54613,-62 133,-62c73.45387,0 133,27.75834 133,62z" fill="#ffffff" stroke="#000000" stroke-width="2"/><path d="M126.5,118.5c0,4.97056 -3.80558,9 -8.5,9c-4.69442,0 -8.5,-4.02944 -8.5,-9c0,-4.97056 3.80558,-9 8.5,-9c4.69442,0 8.5,4.02944 8.5,9z" fill="#ffffff" stroke="#000000" stroke-width="2"/><path d="M171.5,118.5c0,4.41828 -3.58172,8 -8,8c-4.41828,0 -8,-3.58172 -8,-8c0,-4.41828 3.58172,-8 8,-8c4.41828,0 8,3.58172 8,8z" fill="#ffffff" stroke="#000000" stroke-width="2"/><path d="M156.5,138c2.5,0 2.5,2.5 2.5,2.5l-0.26393,2.11803c-1.25575,2.50234 -1.52286,5.63631 -3.46831,7.64973c-0.85959,0.88962 -2.40013,0.71012 -3.45343,1.35886c-0.80276,0.49444 -1.18709,1.52244 -2,2c-6.11855,3.5945 -13.51464,3.4678 -20.31433,3.37338c-3.93591,-0.05466 -8.14391,-1.39222 -10.1755,-5.26826c-0.74143,-1.41457 -0.83324,-3.0836 -1.24985,-4.62541c0,0 -0.60634,-2.42535 1.81901,-3.03169c2.42535,-0.60634 3.03169,1.81902 3.03169,1.81902c0.60011,2.69966 1.22936,5.21701 4.2991,6.21361c1.98991,0.64603 4.18339,-0.10727 6.27554,-0.10727c4.42833,0 9.74467,-0.20112 13.68567,-2.62662c0.80292,-0.49417 1.18476,-1.52642 2,-2c0.7569,-0.43969 1.90937,-0.04096 2.54657,-0.64114c0.54264,-0.51111 0.182,-1.49649 0.45807,-2.18894c0.57394,-1.4396 1.38242,-2.77421 2.07363,-4.16133l-0.26393,0.11803c0,0 0,-2.5 2.5,-2.5z" fill="#000000" stroke="none" stroke-width="0.5"/><path d="M410.70943,264.87171c-2.37171,-0.79057 -1.58114,-3.16228 -1.58114,-3.16228l1.24509,-3.52376c0.60564,-0.54746 1.48729,-0.89548 1.81692,-1.64238c0.27619,-0.62581 -0.16877,-1.35959 -0.1903,-2.04329c-0.07344,-2.33218 0,-4.66666 0,-7c0,-10.13398 0.91075,-20.47143 -1.9003,-30.30103c-0.71659,-2.50576 -1.4455,-6.00924 -3.36746,-7.93121c-4.65226,-4.65226 -13.06547,-2.92505 -18.83857,-4.34241c0,0 -2.42536,-0.60634 -1.81902,-3.03169c0.60634,-2.42535 3.0317,-1.81902 3.0317,-1.81902c5.88008,1.50071 11.88162,0.28161 17.49204,3.17956c5.19844,2.68516 6.7958,7.27087 8.30192,12.54682c2.94953,10.33228 2.0997,21.05737 2.0997,31.69897c0,3.11831 0.90291,8.04825 -0.1903,10.95671c-0.37684,1.00256 -1.45539,1.57175 -2.18308,2.35762l-0.75491,2.47624c0,0 -0.79057,2.37171 -3.16228,1.58114z" fill="#000000" stroke="none" stroke-width="0.5"/><path d="M250,164.5c0,2.5 -2.5,2.5 -2.5,2.5h-1c-4.59388,-0.04043 -5.90542,1.13984 -10.5369,2.28315c-6.22176,1.53588 -12.76405,2.26674 -19.05026,3.61371c-8.02161,1.71882 -15.93582,3.91357 -24.05928,5.07801c0,0 -2.47487,0.35355 -2.82843,-2.12132c-0.35355,-2.47487 2.12132,-2.82843 2.12132,-2.82843c8.00721,-1.13982 15.81246,-3.32298 23.71874,-5.01728c6.2357,-1.3363 12.72881,-2.05568 18.89959,-3.57898c4.7309,-1.16786 6.817,-2.3934 11.73522,-2.42887h1c0,0 2.5,0 2.5,2.5z" fill="#ff7b00" stroke="none" stroke-width="0.5"/><path d="M213,193.5c0,2.5 -2.5,2.5 -2.5,2.5l-2.81893,-0.00657c-7.33019,1.08682 -14.59849,2.9987 -21.90828,3.99164c-5.54631,0.75339 -11.67003,0.01493 -17.27279,0.01493c0,0 -2.5,0 -2.5,-2.5c0,-2.5 2.5,-2.5 2.5,-2.5c5.40771,0 11.38225,0.76156 16.72721,0.01493c7.37508,-1.03021 14.68477,-2.94177 22.09172,-4.00836l3.18107,-0.00657c0,0 2.5,0 2.5,2.5z" fill="#ff00f7" stroke="none" stroke-width="0.5"/><path d="M330.87612,169.27721c-0.77721,2.37612 -3.15333,1.59891 -3.15333,1.59891l-3.09291,-1.01419c-10.4064,-2.41621 -21.47661,-3.88086 -32.12988,-3.86193c0,0 -2.5,0 -2.5,-2.5c0,-2.5 2.5,-2.5 2.5,-2.5c11.12792,0.01821 22.60922,1.51806 33.47439,4.04609l3.30281,1.07779c0,0 2.37612,0.77721 1.59891,3.15333z" fill="#ff00f7" stroke="none" stroke-width="0.5"/><path d="M305,197.5c0,2.5 -2.5,2.5 -2.5,2.5l-1.8094,-0.00728c-5.84075,0.44659 -11.20976,1.76683 -16.97823,2.52032c-0.05704,0.00745 -8.82736,1.11295 -9.22887,1.28537c-2.88154,1.23745 -4.97469,3.81998 -7.4835,5.70158c0,0 -2,1.5 -3.5,-0.5c-1.5,-2 0.5,-3.5 0.5,-3.5c0.56954,-0.42716 8.15934,-6.14602 8.5165,-6.29842c1.19978,-0.51195 9.05836,-1.45397 10.55174,-1.64687c5.84511,-0.755 11.31327,-2.09419 17.24116,-2.54744l2.1906,-0.00728c0,0 2.5,0 2.5,2.5z" fill="#ff007b" stroke="none" stroke-width="0.5"/><path d="M267.99922,242.56256c-0.06256,2.49922 -2.56177,2.43666 -2.56177,2.43666l-3.083,-0.07717c-16.46631,-0.41737 -32.03027,-2.84543 -47.64502,-8.05034c0,0 -2.37171,-0.79057 -1.58114,-3.16228c0.79057,-2.37171 3.16228,-1.58114 3.16228,-1.58114c15.1449,5.0483 30.2135,7.40071 46.18899,7.79532l3.083,0.07717c0,0 2.49922,0.06256 2.43666,2.56177z" fill="#ff007b" stroke="none" stroke-width="0.5"/><path d="M371.91191,194.84221c0.65779,2.41191 -1.75412,3.0697 -1.75412,3.0697l-1.35236,0.36883c-9.37563,2.55699 -18.3557,5.21523 -27.46031,8.57209c-0.93017,0.34295 -7.23782,2.25533 -7.44038,2.35282c-4.16106,2.00279 -8.22614,5.53428 -11.90474,8.29435c0,0 -2,1.5 -3.5,-0.5c-1.5,-2 0.5,-3.5 0.5,-3.5c3.94139,-2.95487 8.28272,-6.65608 12.73626,-8.79965c1.25151,-0.60237 6.04397,-1.86118 7.91862,-2.55317c9.22501,-3.40523 18.33667,-6.09982 27.83497,-8.69026l1.35236,-0.36883c0,0 2.41191,-0.65779 3.0697,1.75412z" fill="#ff007b" stroke="none" stroke-width="0.5"/><path d="M185.9385,166.94887c0.55113,2.4385 -1.88737,2.98962 -1.88737,2.98962l-2.64394,0.55743c-7.68971,5.04379 -17.41027,7.89789 -25.97871,11.32527c0,0 -2.32119,0.92848 -3.24967,-1.39272c-0.92848,-2.32119 1.39272,-3.24967 1.39272,-3.24967c8.57718,-3.43087 18.15569,-6.29862 25.89104,-11.28923l3.48631,-0.82807c0,0 2.4385,-0.55113 2.98962,1.88737z" fill="#ff007b" stroke="none" stroke-width="0.5"/><path d="M198,221.5c0,2.5 -2.5,2.5 -2.5,2.5l-1.15986,-0.1454c-7.30138,2.60425 -13.99127,5.41557 -20.45339,9.72552c0,0 -2.08013,1.38675 -3.46688,-0.69338c-1.38675,-2.08013 0.69338,-3.46688 0.69338,-3.46688c6.80724,-4.53627 13.86079,-7.53113 21.54661,-10.27448l2.84014,-0.1454c0,0 2.5,0 2.5,2.5z" fill="#6f00ff" stroke="none" stroke-width="0.5"/><path d="M267.73607,172.38197c1.11803,2.23607 -1.11803,3.3541 -1.11803,3.3541l-1.73128,0.84406c-3.29251,2.1931 -6.7654,4.45479 -10.32426,6.18286c-5.12113,2.48666 -10.82861,3.67625 -15.67962,6.81972c-2.4936,1.61586 -4.49986,3.88169 -6.75589,5.81543c0,0 -1.89814,1.62698 -3.52512,-0.27116c-1.62698,-1.89814 0.27116,-3.52512 0.27116,-3.52512c2.41065,-2.06627 4.58203,-4.45424 7.24411,-6.18457c5.07263,-3.29716 10.97144,-4.57446 16.32038,-7.18028c3.3321,-1.62328 6.59283,-3.75999 9.67574,-5.81714l2.26872,-1.15594c0,0 2.23607,-1.11803 3.3541,1.11803z" fill="#6f00ff" stroke="none" stroke-width="0.5"/><path d="M315,221.5c0,2.5 -2.5,2.5 -2.5,2.5c-8,0 -19,0 -27,0c0,0 -2.5,0 -2.5,-2.5c0,-2.5 2.5,-2.5 2.5,-2.5c8,0 16,0 24,0h3c0,0 2.5,0 2.5,2.5z" fill="#6f00ff" stroke="none" stroke-width="0.5"/><path d="M238,212.5c0,2.5 -2.5,2.5 -2.5,2.5l-1.39366,-0.07464c-1.33333,0.33333 -2.66667,0.66667 -4,1c0,0 -2.42536,0.60634 -3.0317,-1.81902c-0.60634,-2.42536 1.81902,-3.0317 1.81902,-3.0317c1.33333,-0.33333 2.66667,-0.66667 4,-1l2.60634,-0.07464c0,0 2.5,0 2.5,2.5z" fill="#6f00ff" stroke="none" stroke-width="0.5"/><path d="M231,151.5c0,2.5 -2.5,2.5 -2.5,2.5c-6.66667,0 -14.33333,0 -21,0c0,0 -2.5,0 -2.5,-2.5c0,-2.5 2.5,-2.5 2.5,-2.5c6.66667,0 13.33333,0 20,0h1c0,0 2.5,0 2.5,2.5z" fill="#6f00ff" stroke="none" stroke-width="0.5"/><path d="M272.82119,150.42848c-0.92848,2.32119 -3.24967,1.39272 -3.24967,1.39272l-0.35762,-0.14305c-4.31499,-1.77607 -7.81755,-1.64733 -12.32025,-2.75279c0,0 -2.42536,-0.60634 -1.81902,-3.0317c0.60634,-2.42536 3.0317,-1.81902 3.0317,-1.81902c2.55996,0.65335 5.28487,0.40847 7.86643,0.97047c1.78257,0.38806 3.39873,1.3271 5.09809,1.99065l0.35762,0.14305c0,0 2.32119,0.92848 1.39272,3.24967z" fill="#ff0000" stroke="none" stroke-width="0.5"/><path d="M336.99207,232.301c0.199,2.49207 -2.29307,2.69107 -2.29307,2.69107l-1.55679,-0.03324c-7.9179,3.68023 -15.60306,6.28285 -24.15192,7.99263c0,0 -2.45145,0.49029 -2.94174,-1.96116c-0.49029,-2.45145 1.96116,-2.94174 1.96116,-2.94174c8.15403,-1.63081 15.46604,-4.09261 23.02077,-7.62189l3.27052,-0.41872c0,0 2.49207,-0.199 2.69107,2.29307z" fill="#ff0000" stroke="none" stroke-width="0.5"/><path d="M354,176.5c0,2.5 -2.5,2.5 -2.5,2.5l-0.20943,-0.12829c-2.20917,0.71538 -4.0243,2.347 -6.17091,3.2326c-3.03251,1.25109 -6.52652,1.20664 -9.48522,2.62348c-2.55522,1.22362 -4.48451,3.48424 -6.9084,4.95093c-2.24855,1.36059 -4.82559,2.08387 -7.24125,3.11915c0,0 -2.29786,0.9848 -3.28266,-1.31306c-0.9848,-2.29786 1.31306,-3.28266 1.31306,-3.28266c2.25102,-0.96472 4.66958,-1.6029 6.75875,-2.88085c2.4754,-1.51421 4.47435,-3.79591 7.0916,-5.04907c3.04687,-1.45886 6.63473,-1.45355 9.75399,-2.75043c2.28144,-0.94855 4.25135,-2.59604 6.58989,-3.39349l1.79057,-0.12829c0,0 2.5,0 2.5,2.5z" fill="#ff0000" stroke="none" stroke-width="0.5"/><path d="M158.73607,207.61803c-1.11803,2.23607 -3.3541,1.11803 -3.3541,1.11803l-2.96209,-1.84932c-3.146,-4.76237 -4.60174,-10.17041 -7.15594,-15.26872c0,0 -1.11803,-2.23607 1.11803,-3.3541c2.23607,-1.11803 3.3541,1.11803 3.3541,1.11803c2.43872,4.88656 3.79754,10.21006 6.84406,14.73128l1.03791,0.15068c0,0 2.23607,1.11803 1.11803,3.3541z" fill="#ff0000" stroke="none" stroke-width="0.5"/><path d="M180.61803,293.73607c-2.23607,1.11803 -3.3541,-1.11803 -3.3541,-1.11803l-0.5317,-1.35027c-1.95171,-1.96231 -3.76988,-4.08306 -5.31236,-6.38102c0,0 -1.38675,-2.08013 0.69338,-3.46688c2.08013,-1.38675 3.46688,0.69338 3.46688,0.69338c1.34566,2.03442 2.95763,3.89947 4.68764,5.61898l1.4683,2.64973c0,0 1.11803,2.23607 -1.11803,3.3541z" fill="#ff0000" stroke="none" stroke-width="0.5"/><path d="M331,290.5c0,2.5 -2.5,2.5 -2.5,2.5l-1.75499,-0.11673c-1.64845,-0.55963 -3.53747,-0.65494 -4.94534,-1.67889c-3.93756,-2.8638 -4.24432,-5.73343 -5.67138,-9.91382c0,0 -0.79057,-2.37171 1.58114,-3.16228c2.37171,-0.79057 3.16228,1.58114 3.16228,1.58114c0.81013,2.50203 1.3051,5.70313 3.75302,7.36954c1.04037,0.70823 2.42017,0.69184 3.63026,1.03775l0.24501,-0.11673c0,0 2.5,0 2.5,2.5z" fill="#ff0000" stroke="none" stroke-width="0.5"/></g></g></svg>